<svg id="Glyph" enable-background="new 0 0 64 64" height="512" viewBox="0 0 64 64" width="512" xmlns="http://www.w3.org/2000/svg"><path d="m48 2-4 2-4-2v9h8z"/><path d="m36 16h16v2h-16z"/><path d="m36 21h16v2h-16z"/><path d="m36 26h16v2h-16z"/><path d="m36 31h16v2h-16z"/><path d="m36 36h16v2h-16z"/><path d="m36 41h16v2h-16z"/><path d="m12 16h16v2h-16z"/><path d="m12 21h16v2h-16z"/><path d="m12 26h16v2h-16z"/><path d="m12 31h16v2h-16z"/><path d="m12 36h16v2h-16z"/><path d="m12 41h16v2h-16z"/><path d="m50 6v5h7v36h-16c-3.273 0-6.175 1.588-8 4.025v-40.025h4.859v-5h-35.859v56h60v-56zm-43 5h24v40.025c-1.825-2.437-4.727-4.025-8-4.025h-16zm0 46v-8h16c4.411 0 8 3.589 8 8zm50 0h-24c0-4.411 3.589-8 8-8h16z"/></svg>